<svg width="392" height="87" viewBox="0 0 392 87" fill="none" xmlns="http://www.w3.org/2000/svg">
<path fill-rule="evenodd" clip-rule="evenodd" d="M0 18.4102C0 16.7804 1.7114 15.7174 3.17243 16.4397L27.3079 28.3722V82.9126C27.3079 85.3803 24.6967 86.9735 22.5023 85.8448L1.19263 74.8827C0.460302 74.5061 0 73.7515 0 72.928V18.4102Z" fill="url(#paint0_linear_103_196)"/>
<path fill-rule="evenodd" clip-rule="evenodd" d="M27.2982 28.377L55.2322 74.4222L27.2982 60.322V28.377Z" fill="url(#paint1_linear_103_196)"/>
<path fill-rule="evenodd" clip-rule="evenodd" d="M54.6257 16.0267C55.2337 15.0615 56.4792 14.7219 57.4932 15.2448L83.5161 28.6666L55.2019 74.3966L36.8847 44.1885L54.6257 16.0267Z" fill="url(#paint2_linear_103_196)"/>
<path fill-rule="evenodd" clip-rule="evenodd" d="M55.2092 74.3954L83.5118 28.6584L83.684 79.9218C83.6978 84.0338 79.3563 86.7037 75.6928 84.8363L55.2092 74.3954Z" fill="url(#paint3_linear_103_196)"/>
<g filter="url(#filter0_di_103_196)">
<circle cx="349.477" cy="37.137" r="16.2074" fill="url(#paint4_linear_103_196)"/>
</g>
<rect x="345.953" y="27.9763" width="7.04668" height="18.3214" rx="1.057" fill="white"/>
<rect x="358.637" y="33.6135" width="7.04668" height="18.3214" rx="1.057" transform="rotate(90 358.637 33.6135)" fill="white"/>
<path d="M127.014 74.2141V61.3347H139.374V74.2141H146.376V42.2316H139.374V54.8517H127.014V42.2316H120.012V74.2141H127.014ZM162.223 74.776C168.144 74.776 172.423 71.7074 173.201 66.91H167.107C166.632 68.4659 164.86 69.3735 162.353 69.3735C159.414 69.3735 157.815 68.0337 157.426 65.1812L173.115 65.0948V63.4092C173.115 56.3644 168.879 51.9128 162.094 51.9128C155.568 51.9128 151.029 56.6237 151.029 63.366C151.029 70.0218 155.697 74.776 162.223 74.776ZM162.137 57.3152C164.817 57.3152 166.502 58.7847 166.502 61.0753H157.512C158.031 58.4822 159.501 57.3152 162.137 57.3152ZM183.371 74.776C186.613 74.776 189.465 73.3497 190.157 71.3616L190.589 74.2141H196.467V61.594C196.467 55.4136 192.923 51.9128 186.656 51.9128C180.476 51.9128 176.456 55.111 176.456 59.9949H181.988C181.988 58.05 183.501 56.9695 186.31 56.9695C188.687 56.9695 189.984 58.0932 189.984 60.211V60.5567L183.933 61.0321C178.747 61.4211 175.937 63.8846 175.937 67.8608C175.937 72.0963 178.79 74.776 183.371 74.776ZM185.705 69.8489C183.674 69.8489 182.723 69.1142 182.723 67.5583C182.723 66.1753 183.76 65.527 186.656 65.2676L190.027 64.9651V66.132C190.027 68.5956 188.255 69.8489 185.705 69.8489ZM207.896 74.2141V41.6265H201.241V74.2141H207.896ZM221.62 74.2141V58.1364H225.726V52.6043H221.62V45.9053H214.964V52.6043H210.858V58.1364H214.964V74.2141H221.62ZM235.373 74.2141V62.3719C235.373 59.6923 237.058 57.9635 239.695 57.9635C241.986 57.9635 243.498 59.7355 243.498 62.4584V74.2141H250.154V60.8592C250.154 55.1975 247.172 51.9128 242.029 51.9128C239.219 51.9128 236.756 52.9933 235.416 54.8517V41.6265H228.717V74.2141H235.373ZM252.777 84.5868C254.073 84.9758 255.586 85.1919 257.185 85.1919C260.988 85.1919 263.409 83.3335 265.224 78.9251L276.202 52.6043H269.286L264.057 66.4778L259.346 52.6043H252.215L260.902 74.9488L260.513 75.9861C259.649 78.32 258.698 79.0115 256.45 79.0115H252.777V84.5868ZM286.55 74.2141V65.2676C286.55 61.7669 286.506 59.0872 286.117 56.7102L292.86 74.2141H299.256L306.042 56.7102C305.696 59.0872 305.696 60.5999 305.696 67.5151V74.2141H312.481V42.2316H305.61L296.058 66.0888L286.55 42.2316H279.764V74.2141H286.55ZM328.349 74.776C334.27 74.776 338.549 71.7074 339.327 66.91H333.233C332.757 68.4659 330.985 69.3735 328.478 69.3735C325.54 69.3735 323.94 68.0337 323.551 65.1812L339.24 65.0948V63.4092C339.24 56.3644 335.005 51.9128 328.219 51.9128C321.693 51.9128 317.155 56.6237 317.155 63.366C317.155 70.0218 321.823 74.776 328.349 74.776ZM328.262 57.3152C330.942 57.3152 332.628 58.7847 332.628 61.0753H323.638C324.157 58.4822 325.626 57.3152 328.262 57.3152Z" fill="url(#paint5_linear_103_196)"/>
<defs>
<filter id="filter0_di_103_196" x="307.608" y="0.670484" width="83.738" height="83.7381" filterUnits="userSpaceOnUse" color-interpolation-filters="sRGB">
<feFlood flood-opacity="0" result="BackgroundImageFix"/>
<feColorMatrix in="SourceAlpha" type="matrix" values="0 0 0 0 0 0 0 0 0 0 0 0 0 0 0 0 0 0 127 0" result="hardAlpha"/>
<feOffset dy="5.40245"/>
<feGaussianBlur stdDeviation="12.8308"/>
<feComposite in2="hardAlpha" operator="out"/>
<feColorMatrix type="matrix" values="0 0 0 0 0.0862745 0 0 0 0 0.470588 0 0 0 0 0.94902 0 0 0 0.2 0"/>
<feBlend mode="normal" in2="BackgroundImageFix" result="effect1_dropShadow_103_196"/>
<feBlend mode="normal" in="SourceGraphic" in2="effect1_dropShadow_103_196" result="shape"/>
<feColorMatrix in="SourceAlpha" type="matrix" values="0 0 0 0 0 0 0 0 0 0 0 0 0 0 0 0 0 0 127 0" result="hardAlpha"/>
<feOffset dy="5.40245"/>
<feGaussianBlur stdDeviation="2.70123"/>
<feComposite in2="hardAlpha" operator="arithmetic" k2="-1" k3="1"/>
<feColorMatrix type="matrix" values="0 0 0 0 0 0 0 0 0 0 0 0 0 0 0 0 0 0 0.12 0"/>
<feBlend mode="normal" in2="shape" result="effect2_innerShadow_103_196"/>
</filter>
<linearGradient id="paint0_linear_103_196" x1="-2.12577" y1="-11.2438" x2="60.547" y2="-8.61346" gradientUnits="userSpaceOnUse">
<stop stop-color="#3A8EF6"/>
<stop offset="1" stop-color="#6F3AFA"/>
</linearGradient>
<linearGradient id="paint1_linear_103_196" x1="34.2817" y1="23.2608" x2="84.2021" y2="66.6421" gradientUnits="userSpaceOnUse">
<stop stop-color="#3D93FF"/>
<stop offset="1" stop-color="#65A8FB"/>
</linearGradient>
<linearGradient id="paint2_linear_103_196" x1="33.2547" y1="-8.29281" x2="139.705" y2="0.698656" gradientUnits="userSpaceOnUse">
<stop stop-color="#3A8EF6"/>
<stop offset="1" stop-color="#6F3AFA"/>
</linearGradient>
<linearGradient id="paint3_linear_103_196" x1="62.3279" y1="22.3491" x2="121.245" y2="64.669" gradientUnits="userSpaceOnUse">
<stop stop-color="#65A8FB"/>
<stop offset="1" stop-color="#65A8FB"/>
</linearGradient>
<linearGradient id="paint4_linear_103_196" x1="330.746" y1="8.21802" x2="404.417" y2="16.1442" gradientUnits="userSpaceOnUse">
<stop stop-color="#3A8EF6"/>
<stop offset="1" stop-color="#6F3AFA"/>
</linearGradient>
<linearGradient id="paint5_linear_103_196" x1="99.2469" y1="5.469" x2="538.417" y2="187.951" gradientUnits="userSpaceOnUse">
<stop stop-color="#3A8EF6"/>
<stop offset="1" stop-color="#6F3AFA"/>
</linearGradient>
</defs>
</svg>
